<svg width="37" height="37" viewBox="0 0 37 37" fill="none" xmlns="http://www.w3.org/2000/svg">
<path d="M16.3176 35.9931L16.1369 35.7985L3.47598 22.0317C1.25742 19.6202 0 16.2357 0 12.6903V12.4111C0 6.45424 3.61328 1.34353 8.61406 0.226625C11.4613 -0.416443 14.3736 0.353547 16.6934 2.26583C17.3438 2.80736 17.9508 3.43351 18.5 4.15273C18.8035 3.74658 19.1287 3.37428 19.4756 3.02736C19.743 2.75659 20.0176 2.50275 20.3066 2.26583C22.6264 0.353547 25.5387 -0.416443 28.3859 0.218164C33.3867 1.33507 37 6.45424 37 12.4111V12.6903C37 16.2357 35.7426 19.6202 33.524 22.0317L20.8631 35.7985L20.6824 35.9931C20.0898 36.6362 19.3094 37 18.5 37C17.6906 37 16.9102 36.6446 16.3176 35.9931ZM17.2787 8.64575C17.2498 8.62036 17.2281 8.58652 17.2064 8.55267L15.9201 6.86039L15.9129 6.85193C14.2436 4.66042 11.7215 3.66197 9.26445 4.21196C5.89687 4.96503 3.46875 8.40037 3.46875 12.4111V12.6903C3.46875 15.1018 4.32871 17.4118 5.83906 19.0533L18.5 32.8201L31.1609 19.0533C32.6713 17.4118 33.5312 15.1018 33.5312 12.6903V12.4111C33.5312 8.40883 31.1031 4.96503 27.7428 4.21196C25.2857 3.66197 22.7564 4.66888 21.0943 6.85193C21.0943 6.85193 21.0943 6.85193 21.0871 6.86039C21.0799 6.86885 21.0871 6.86039 21.0799 6.86885L19.7936 8.56113C19.7719 8.59498 19.743 8.62036 19.7213 8.65421C19.3961 9.03498 18.9553 9.24651 18.5 9.24651C18.0447 9.24651 17.6039 9.03498 17.2787 8.65421V8.64575Z" fill="#D9D9D9"/>
</svg>
