<svg width="37" height="37" viewBox="0 0 37 37" fill="none" xmlns="http://www.w3.org/2000/svg">
<path d="M3.43984 21.8231L16.4982 36.0789C17.0402 36.6704 17.7557 37 18.5 37C19.2443 37 19.9598 36.6704 20.5018 36.0789L33.5602 21.8231C35.757 19.4316 37 16.0768 37 12.5699V12.0798C37 6.17294 33.3506 1.1365 28.3715 0.164707C25.0762 -0.477523 21.723 0.781587 19.3672 3.53642L18.5 4.55046L17.6328 3.53642C15.277 0.781587 11.9238 -0.477523 8.62852 0.164707C3.64941 1.1365 0 6.17294 0 12.0798V12.5699C0 16.0768 1.24297 19.4316 3.43984 21.8231Z" fill="#FF0000"/>
</svg>
