<svg width="19" height="14" viewBox="0 0 19 14" fill="none" xmlns="http://www.w3.org/2000/svg">
<g clip-path="url(#clip0_30_60)">
<path d="M4.05935 3.42779L4.05907 3.42804C2.76093 4.57171 1.86426 5.92814 1.40303 6.8921L1.3514 7L1.40303 7.1079C1.86425 8.07182 2.76085 9.42815 4.05553 10.5717L4.05628 10.5724C5.4472 11.7911 7.27133 12.75 9.49835 12.75C11.7253 12.75 13.5496 11.7911 14.9373 10.5722L14.9376 10.572C16.2358 9.42829 17.1324 8.07186 17.5937 7.1079L17.6453 7L17.5937 6.8921C17.1325 5.92818 16.2359 4.57185 14.9412 3.42825L14.9404 3.42759C13.5495 2.20892 11.7254 1.25 9.49835 1.25C7.27136 1.25 5.44715 2.2089 4.05935 3.42779ZM3.31079 2.70656L3.31105 2.70633C4.83222 1.36607 6.90983 0.25 9.49835 0.25C12.0869 0.25 14.1645 1.36607 15.6857 2.70633L15.6857 2.70637C17.1996 4.03958 18.2114 5.63085 18.6896 6.71641L18.6896 6.71648C18.7701 6.8991 18.7701 7.1009 18.6896 7.28352L18.6896 7.28359C18.2113 8.36934 17.1995 9.96357 15.6859 11.2934L15.6857 11.2937C14.1645 12.6339 12.0869 13.75 9.49835 13.75C6.90983 13.75 4.83222 12.6339 3.31105 11.2937L3.31079 11.2934C1.79714 9.96352 0.785526 8.3694 0.310669 7.28416L0.310387 7.28352C0.229871 7.1009 0.229871 6.8991 0.310388 6.71648L0.310668 6.71584C0.785526 5.6306 1.79714 4.03648 3.31079 2.70656ZM9.43239 4.25H9.10624L9.19097 4.56495C9.22824 4.70346 9.24835 4.85039 9.24835 5C9.24835 5.95251 8.42655 6.75 7.38742 6.75C7.22595 6.75 7.06754 6.73051 6.91838 6.69449L6.60969 6.61994V6.9375V6.93763V6.93776V6.93788V6.93801V6.93814V6.93827V6.9384V6.93852V6.93865V6.93878V6.93891V6.93903V6.93916V6.93929V6.93941V6.93954V6.93967V6.9398V6.93992V6.94005V6.94018V6.9403V6.94043V6.94056V6.94068V6.94081V6.94094V6.94106V6.94119V6.94131V6.94144V6.94157V6.94169V6.94182V6.94194V6.94207V6.9422V6.94232V6.94245V6.94257V6.9427V6.94282V6.94295V6.94307V6.9432V6.94333V6.94345V6.94357V6.9437V6.94383V6.94395V6.94407V6.9442V6.94432V6.94445V6.94457V6.9447V6.94482V6.94495V6.94507V6.9452V6.94532V6.94544V6.94557V6.94569V6.94582V6.94594V6.94606V6.94619V6.94631V6.94644V6.94656V6.94668V6.94681V6.94693V6.94705V6.94718V6.9473V6.94743V6.94755V6.94767V6.9478V6.94792V6.94804V6.94816V6.94829V6.94841V6.94853V6.94866V6.94878V6.9489V6.94903V6.94915V6.94927V6.94939V6.94952V6.94964V6.94976V6.94988V6.95001V6.95013V6.95025V6.95037V6.9505V6.95062V6.95074V6.95086V6.95098V6.95111V6.95123V6.95135V6.95147V6.95159V6.95172V6.95184V6.95196V6.95208V6.9522V6.95232V6.95245V6.95257V6.95269V6.95281V6.95293V6.95305V6.95318V6.9533V6.95342V6.95354V6.95366V6.95378V6.9539V6.95402V6.95414V6.95427V6.95439V6.95451V6.95463V6.95475V6.95487V6.95499V6.95511V6.95523V6.95535V6.95548V6.9556V6.95572V6.95584V6.95596V6.95608V6.9562V6.95632V6.95644V6.95656V6.95668V6.9568V6.95692V6.95704V6.95716V6.95728V6.9574V6.95752V6.95764V6.95776V6.95788V6.958V6.95812V6.95824V6.95836V6.95848V6.9586V6.95872V6.95884V6.95896V6.95908V6.9592V6.95932V6.95944V6.95956V6.95968V6.9598V6.95992V6.96004V6.96016V6.96028V6.9604V6.96052V6.96064V6.96076V6.96088V6.961V6.96112V6.96124V6.96136V6.96148V6.9616V6.96172V6.96184V6.96196V6.96208V6.9622V6.96232V6.96244V6.96255V6.96267V6.96279V6.96291V6.96303V6.96315V6.96327V6.96339V6.96351V6.96363V6.96375V6.96387V6.96399V6.96411V6.96422V6.96434V6.96446V6.96458V6.9647V6.96482V6.96494V6.96506V6.96518V6.9653V6.96542V6.96554V6.96565V6.96577V6.96589V6.96601V6.96613V6.96625V6.96637V6.96649V6.96661V6.96673V6.96685V6.96696V6.96708V6.9672V6.96732V6.96744V6.96756V6.96768V6.9678V6.96792V6.96804V6.96815V6.96827V6.96839V6.96851V6.96863V6.96875V6.96887V6.96899V6.96911V6.96923V6.96935V6.96946V6.96958V6.9697V6.96982V6.96994V6.97006V6.97018V6.9703V6.97042V6.97054V6.97065V6.97077V6.97089V6.97101V6.97113V6.97125V6.97137V6.97149V6.97161V6.97173V6.97185V6.97196V6.97208V6.9722V6.97232V6.97244V6.97256V6.97268V6.9728V6.97292V6.97304V6.97316V6.97328V6.97339V6.97351V6.97363V6.97375V6.97387V6.97399V6.97411V6.97423V6.97435V6.97447V6.97459V6.97471V6.97483V6.97495V6.97506V6.97518V6.9753V6.97542V6.97554V6.97566V6.97578V6.9759V6.97602V6.97614V6.97626V6.97638V6.9765V6.97662V6.97674V6.97686V6.97698V6.9771V6.97722V6.97734V6.97746V6.97758V6.9777V6.97782V6.97794V6.97806V6.97818V6.9783V6.97842V6.97854V6.97866V6.97878V6.9789V6.97902V6.97914V6.97926V6.97938V6.9795V6.97962V6.97974V6.97986V6.97998V6.9801V6.98022V6.98034V6.98046V6.98058V6.9807V6.98082V6.98094V6.98106V6.98118V6.9813V6.98142V6.98154V6.98166V6.98178V6.9819V6.98202V6.98215V6.98227V6.98239V6.98251V6.98263V6.98275V6.98287V6.98299V6.98311V6.98323V6.98336V6.98348V6.9836V6.98372V6.98384V6.98396V6.98408V6.9842V6.98432V6.98445V6.98457V6.98469V6.98481V6.98493V6.98505V6.98518V6.9853V6.98542V6.98554V6.98566V6.98578V6.98591V6.98603V6.98615V6.98627V6.98639V6.98652V6.98664V6.98676V6.98688V6.987V6.98713V6.98725V6.98737V6.98749V6.98762V6.98774V6.98786V6.98798V6.98811V6.98823V6.98835V6.98847V6.9886V6.98872V6.98884V6.98897V6.98909V6.98921V6.98934V6.98946V6.98958V6.9897V6.98983V6.98995V6.99007V6.9902V6.99032V6.99045V6.99057V6.99069V6.99082V6.99094V6.99106V6.99119V6.99131V6.99144V6.99156V6.99168V6.99181V6.99193V6.99206V6.99218V6.9923V6.99243V6.99255V6.99268V6.9928V6.99293V6.99305V6.99318V6.9933V6.99343V6.99355V6.99367V6.9938V6.99393V6.99405V6.99417V6.9943V6.99443V6.99455V6.99468V6.9948V6.99493V6.99505V6.99518V6.9953V6.99543V6.99556V6.99568V6.99581V6.99593V6.99606V6.99619V6.99631V6.99644V6.99656V6.99669V6.99682V6.99694V6.99707V6.9972V6.99732V6.99745V6.99758V6.9977V6.99783V6.99796V6.99809V6.99821V6.99834V6.99847V6.99859V6.99872V6.99885V6.99898V6.9991V6.99923V6.99936V6.99949V6.99962V6.99974V6.99987V7C6.60969 8.53187 7.91531 9.75 9.49835 9.75C11.0814 9.75 12.387 8.53187 12.387 7C12.387 5.46813 11.0814 4.25 9.49835 4.25H9.49822H9.49808H9.49795H9.49781H9.49768H9.49754H9.49741H9.49727H9.49714H9.497H9.49687H9.49673H9.4966H9.49647H9.49633H9.4962H9.49606H9.49593H9.4958H9.49566H9.49553H9.49539H9.49526H9.49513H9.49499H9.49486H9.49473H9.49459H9.49446H9.49433H9.49419H9.49406H9.49393H9.49379H9.49366H9.49353H9.4934H9.49326H9.49313H9.493H9.49287H9.49273H9.4926H9.49247H9.49234H9.4922H9.49207H9.49194H9.49181H9.49168H9.49154H9.49141H9.49128H9.49115H9.49102H9.49089H9.49075H9.49062H9.49049H9.49036H9.49023H9.4901H9.48997H9.48984H9.4897H9.48957H9.48944H9.48931H9.48918H9.48905H9.48892H9.48879H9.48866H9.48853H9.4884H9.48827H9.48814H9.48801H9.48788H9.48775H9.48762H9.48749H9.48736H9.48723H9.4871H9.48697H9.48684H9.48671H9.48658H9.48645H9.48632H9.48619H9.48606H9.48593H9.4858H9.48567H9.48554H9.48541H9.48528H9.48515H9.48502H9.48489H9.48477H9.48464H9.48451H9.48438H9.48425H9.48412H9.48399H9.48386H9.48373H9.4836H9.48348H9.48335H9.48322H9.48309H9.48296H9.48283H9.48271H9.48258H9.48245H9.48232H9.48219H9.48206H9.48194H9.48181H9.48168H9.48155H9.48142H9.4813H9.48117H9.48104H9.48091H9.48078H9.48066H9.48053H9.4804H9.48027H9.48014H9.48002H9.47989H9.47976H9.47963H9.47951H9.47938H9.47925H9.47913H9.479H9.47887H9.47874H9.47862H9.47849H9.47836H9.47823H9.47811H9.47798H9.47785H9.47773H9.4776H9.47747H9.47734H9.47722H9.47709H9.47696H9.47684H9.47671H9.47658H9.47646H9.47633H9.4762H9.47608H9.47595H9.47582H9.4757H9.47557H9.47544H9.47532H9.47519H9.47506H9.47494H9.47481H9.47468H9.47456H9.47443H9.47431H9.47418H9.47405H9.47393H9.4738H9.47367H9.47355H9.47342H9.4733H9.47317H9.47304H9.47292H9.47279H9.47266H9.47254H9.47241H9.47229H9.47216H9.47203H9.47191H9.47178H9.47166H9.47153H9.4714H9.47128H9.47115H9.47103H9.4709H9.47077H9.47065H9.47052H9.4704H9.47027H9.47015H9.47002H9.46989H9.46977H9.46964H9.46952H9.46939H9.46926H9.46914H9.46901H9.46889H9.46876H9.46864H9.46851H9.46838H9.46826H9.46813H9.46801H9.46788H9.46776H9.46763H9.4675H9.46738H9.46725H9.46713H9.467H9.46688H9.46675H9.46663H9.4665H9.46637H9.46625H9.46612H9.466H9.46587H9.46575H9.46562H9.46549H9.46537H9.46524H9.46512H9.46499H9.46487H9.46474H9.46461H9.46449H9.46436H9.46424H9.46411H9.46399H9.46386H9.46374H9.46361H9.46348H9.46336H9.46323H9.46311H9.46298H9.46286H9.46273H9.4626H9.46248H9.46235H9.46223H9.4621H9.46198H9.46185H9.46172H9.4616H9.46147H9.46135H9.46122H9.4611H9.46097H9.46084H9.46072H9.46059H9.46047H9.46034H9.46021H9.46009H9.45996H9.45984H9.45971H9.45959H9.45946H9.45933H9.45921H9.45908H9.45896H9.45883H9.4587H9.45858H9.45845H9.45833H9.4582H9.45807H9.45795H9.45782H9.4577H9.45757H9.45744H9.45732H9.45719H9.45706H9.45694H9.45681H9.45669H9.45656H9.45643H9.45631H9.45618H9.45605H9.45593H9.4558H9.45567H9.45555H9.45542H9.45529H9.45517H9.45504H9.45491H9.45479H9.45466H9.45453H9.45441H9.45428H9.45415H9.45403H9.4539H9.45377H9.45365H9.45352H9.45339H9.45327H9.45314H9.45301H9.45288H9.45276H9.45263H9.4525H9.45238H9.45225H9.45212H9.45199H9.45187H9.45174H9.45161H9.45149H9.45136H9.45123H9.4511H9.45098H9.45085H9.45072H9.45059H9.45047H9.45034H9.45021H9.45008H9.44995H9.44983H9.4497H9.44957H9.44944H9.44931H9.44919H9.44906H9.44893H9.4488H9.44867H9.44855H9.44842H9.44829H9.44816H9.44803H9.4479H9.44778H9.44765H9.44752H9.44739H9.44726H9.44713H9.447H9.44688H9.44675H9.44662H9.44649H9.44636H9.44623H9.4461H9.44597H9.44584H9.44571H9.44559H9.44546H9.44533H9.4452H9.44507H9.44494H9.44481H9.44468H9.44455H9.44442H9.44429H9.44416H9.44403H9.4439H9.44377H9.44364H9.44351H9.44338H9.44325H9.44312H9.44299H9.44286H9.44273H9.4426H9.44247H9.44234H9.44221H9.44208H9.44195H9.44182H9.44169H9.44156H9.44143H9.44129H9.44116H9.44103H9.4409H9.44077H9.44064H9.44051H9.44038H9.44025H9.44011H9.43998H9.43985H9.43972H9.43959H9.43946H9.43933H9.43919H9.43906H9.43893H9.4388H9.43867H9.43853H9.4384H9.43827H9.43814H9.438H9.43787H9.43774H9.43761H9.43747H9.43734H9.43721H9.43708H9.43694H9.43681H9.43668H9.43654H9.43641H9.43628H9.43614H9.43601H9.43588H9.43574H9.43561H9.43548H9.43534H9.43521H9.43508H9.43494H9.43481H9.43467H9.43454H9.43441H9.43427H9.43414H9.434H9.43387H9.43373H9.4336H9.43347H9.43333H9.4332H9.43306H9.43293H9.43279H9.43266H9.43252H9.43239ZM9.49835 3.25C10.556 3.25 11.5678 3.64819 12.3117 4.35305C13.0552 5.05748 13.4702 6.00993 13.4702 7C13.4702 7.99007 13.0552 8.94251 12.3117 9.64695C11.5678 10.3518 10.556 10.75 9.49835 10.75C8.44073 10.75 7.42895 10.3518 6.68499 9.64695C5.94149 8.94251 5.5265 7.99007 5.5265 7C5.5265 6.00993 5.94149 5.05748 6.68499 4.35305C7.42895 3.64819 8.44073 3.25 9.49835 3.25Z" stroke="#959595" stroke-width="0.5"/>
</g>
<defs>
<clipPath id="clip0_30_60">
<rect width="19" height="14" fill="white"/>
</clipPath>
</defs>
</svg>
