<svg width="76" height="76" viewBox="0 0 76 76" fill="none" xmlns="http://www.w3.org/2000/svg">
<g filter="url(#filter0_d_72_673)">
<rect x="2.77246" width="67.2298" height="67.2298" rx="33.6149" fill="#151515"/>
</g>
<g clip-path="url(#clip0_72_673)">
<path d="M31.9824 41.59C31.9824 41.7028 31.8527 41.793 31.6891 41.793C31.503 41.81 31.3733 41.7197 31.3733 41.59C31.3733 41.4772 31.503 41.3869 31.6665 41.3869C31.8357 41.37 31.9824 41.4603 31.9824 41.59ZM30.2283 41.3362C30.1888 41.449 30.3016 41.5787 30.4708 41.6125C30.6175 41.6689 30.7867 41.6125 30.8205 41.4997C30.8544 41.3869 30.7472 41.2572 30.578 41.2065C30.4314 41.167 30.2678 41.2234 30.2283 41.3362ZM32.7212 41.2403C32.5577 41.2798 32.4449 41.3869 32.4618 41.5167C32.4787 41.6295 32.6254 41.7028 32.7946 41.6633C32.9581 41.6238 33.0709 41.5167 33.054 41.4039C33.0371 41.2967 32.8848 41.2234 32.7212 41.2403ZM36.4324 19.6275C28.6096 19.6275 22.6255 25.5665 22.6255 33.3893C22.6255 39.6442 26.5623 44.9966 32.1854 46.8804C32.9074 47.0101 33.1612 46.5645 33.1612 46.1979C33.1612 45.8483 33.1442 43.9193 33.1442 42.7349C33.1442 42.7349 29.1962 43.5809 28.3671 41.0542C28.3671 41.0542 27.7241 39.4129 26.7992 38.9899C26.7992 38.9899 25.5076 38.1044 26.8894 38.1213C26.8894 38.1213 28.2938 38.2341 29.0665 39.5765C30.3016 41.7536 32.3716 41.1275 33.1781 40.7553C33.3078 39.8528 33.6744 39.2268 34.0805 38.8545C30.9277 38.5049 27.7467 38.048 27.7467 32.6223C27.7467 31.0712 28.1753 30.2929 29.0777 29.3002C28.9311 28.9336 28.4517 27.4221 29.2244 25.4706C30.4032 25.104 33.116 26.9935 33.116 26.9935C34.2441 26.6776 35.4567 26.514 36.658 26.514C37.8594 26.514 39.072 26.6776 40.2 26.9935C40.2 26.9935 42.9129 25.0984 44.0917 25.4706C44.8643 27.4277 44.3849 28.9336 44.2383 29.3002C45.1407 30.2985 45.6934 31.0769 45.6934 32.6223C45.6934 38.0649 42.3714 38.4992 39.2186 38.8545C39.7375 39.3001 40.1774 40.1461 40.1774 41.4715C40.1774 43.3723 40.1605 45.7242 40.1605 46.1867C40.1605 46.5533 40.42 46.9988 41.1362 46.8691C46.7763 44.9966 50.6003 39.6442 50.6003 33.3893C50.6003 25.5665 44.2552 19.6275 36.4324 19.6275ZM28.1077 39.0802C28.0343 39.1366 28.0512 39.2663 28.1471 39.3734C28.2374 39.4637 28.3671 39.5032 28.4404 39.4298C28.5137 39.3734 28.4968 39.2437 28.4009 39.1366C28.3107 39.0463 28.181 39.0068 28.1077 39.0802ZM27.4985 38.6233C27.459 38.6966 27.5154 38.7869 27.6282 38.8433C27.7185 38.8997 27.8313 38.8827 27.8708 38.8038C27.9102 38.7305 27.8538 38.6402 27.741 38.5838C27.6282 38.55 27.538 38.5669 27.4985 38.6233ZM29.3259 40.6312C29.2357 40.7045 29.2695 40.8737 29.3992 40.9809C29.529 41.1106 29.6925 41.1275 29.7658 41.0373C29.8392 40.9639 29.8053 40.7947 29.6925 40.6876C29.5684 40.5579 29.3992 40.5409 29.3259 40.6312ZM28.6829 39.8021C28.5927 39.8585 28.5927 40.0051 28.6829 40.1348C28.7732 40.2646 28.9255 40.321 28.9988 40.2646C29.089 40.1912 29.089 40.0446 28.9988 39.9149C28.9198 39.7852 28.7732 39.7288 28.6829 39.8021Z" fill="white"/>
</g>
<defs>
<filter id="filter0_d_72_673" x="0.772461" y="0" width="75.23" height="75.2298" filterUnits="userSpaceOnUse" color-interpolation-filters="sRGB">
<feFlood flood-opacity="0" result="BackgroundImageFix"/>
<feColorMatrix in="SourceAlpha" type="matrix" values="0 0 0 0 0 0 0 0 0 0 0 0 0 0 0 0 0 0 127 0" result="hardAlpha"/>
<feOffset dx="2" dy="4"/>
<feGaussianBlur stdDeviation="2"/>
<feComposite in2="hardAlpha" operator="out"/>
<feColorMatrix type="matrix" values="0 0 0 0 0 0 0 0 0 0 0 0 0 0 0 0 0 0 0.25 0"/>
<feBlend mode="normal" in2="BackgroundImageFix" result="effect1_dropShadow_72_673"/>
<feBlend mode="normal" in="SourceGraphic" in2="effect1_dropShadow_72_673" result="shape"/>
</filter>
<clipPath id="clip0_72_673">
<rect width="27.9748" height="28.8772" fill="white" transform="translate(22.6255 19.1763)"/>
</clipPath>
</defs>
</svg>
