<svg width="19" height="19" viewBox="0 0 19 19" fill="none" xmlns="http://www.w3.org/2000/svg">
<circle cx="9.5" cy="9.5" r="9.5" fill="#999999"/>
<path d="M10.6759 3.5625C10.7657 3.5625 10.8532 3.591 10.9257 3.6439C10.9983 3.69679 11.0522 3.77135 11.0797 3.85683L11.5462 5.30643C11.7421 5.40228 11.9296 5.51 12.1085 5.63129L13.598 5.31067C13.6858 5.29192 13.7773 5.30153 13.8593 5.33811C13.9414 5.3747 14.0096 5.43637 14.0544 5.51424L15.23 7.54911C15.2749 7.62694 15.2939 7.71701 15.2843 7.80634C15.2747 7.89568 15.2369 7.97965 15.1765 8.04616L14.1544 9.17429C14.1693 9.39061 14.1693 9.6077 14.1544 9.82402L15.1765 10.9538C15.2369 11.0203 15.2747 11.1043 15.2843 11.1937C15.2939 11.283 15.2749 11.3731 15.23 11.4509L14.0544 13.4866C14.0095 13.5643 13.9412 13.6258 13.8592 13.6622C13.7772 13.6987 13.6857 13.7082 13.598 13.6893L12.1085 13.3687C11.9304 13.4892 11.7421 13.5977 11.547 13.6936L11.0797 15.1432C11.0522 15.2287 10.9983 15.3032 10.9257 15.3561C10.8532 15.409 10.7657 15.4375 10.6759 15.4375H8.32466C8.23487 15.4375 8.1474 15.409 8.07484 15.3561C8.00229 15.3032 7.94839 15.2287 7.92091 15.1432L7.45524 13.6944C7.25983 13.5989 7.07135 13.4897 6.89118 13.3679L5.40256 13.6893C5.31474 13.7081 5.22324 13.6985 5.14123 13.6619C5.05922 13.6253 4.99094 13.5636 4.94623 13.4858L3.7706 11.4509C3.72571 11.3731 3.70669 11.283 3.7163 11.1937C3.7259 11.1043 3.76363 11.0203 3.82404 10.9538L4.84614 9.82402C4.83133 9.60826 4.83133 9.39174 4.84614 9.17598L3.82404 8.04616C3.76363 7.97965 3.7259 7.89568 3.7163 7.80634C3.70669 7.71701 3.72571 7.62694 3.7706 7.54911L4.94623 5.51339C4.99107 5.43567 5.0594 5.37418 5.1414 5.33775C5.2234 5.30133 5.31484 5.29184 5.40256 5.31067L6.89118 5.63214C7.071 5.51085 7.25931 5.40143 7.45524 5.30558L7.92176 3.85683C7.94915 3.77162 8.00279 3.69726 8.07501 3.6444C8.14722 3.59153 8.23431 3.56286 8.32381 3.5625H10.6751H10.6759ZM10.3655 4.41071H8.63511L8.15332 5.90951L7.82846 6.06813C7.66875 6.14628 7.51458 6.23526 7.36703 6.33446L7.06676 6.53804L5.5264 6.20554L4.66123 7.70518L5.71725 8.87402L5.69181 9.23366C5.67962 9.41101 5.67962 9.58899 5.69181 9.76634L5.71725 10.126L4.65953 11.2948L5.52556 12.7945L7.06591 12.4628L7.36618 12.6655C7.51374 12.7647 7.66791 12.8537 7.82761 12.9319L8.15248 13.0905L8.63511 14.5893H10.3672L10.8506 13.0896L11.1747 12.9319C11.3342 12.8539 11.4881 12.7649 11.6352 12.6655L11.9347 12.4628L13.4759 12.7945L14.341 11.2948L13.2842 10.126L13.3096 9.76634C13.3218 9.58871 13.3218 9.41044 13.3096 9.23281L13.2842 8.87317L14.3419 7.70518L13.4759 6.20554L11.9347 6.53634L11.6352 6.33446C11.4881 6.23507 11.3342 6.14607 11.1747 6.06813L10.8506 5.91036L10.3663 4.41071H10.3655ZM9.50029 6.95536C10.1752 6.95536 10.8224 7.22345 11.2996 7.70067C11.7768 8.17788 12.0449 8.82512 12.0449 9.5C12.0449 10.1749 11.7768 10.8221 11.2996 11.2993C10.8224 11.7765 10.1752 12.0446 9.50029 12.0446C8.82541 12.0446 8.17817 11.7765 7.70095 11.2993C7.22374 10.8221 6.95565 10.1749 6.95565 9.5C6.95565 8.82512 7.22374 8.17788 7.70095 7.70067C8.17817 7.22345 8.82541 6.95536 9.50029 6.95536ZM9.50029 7.80357C9.05037 7.80357 8.61887 7.9823 8.30073 8.30044C7.98259 8.61859 7.80386 9.05008 7.80386 9.5C7.80386 9.94992 7.98259 10.3814 8.30073 10.6996C8.61887 11.0177 9.05037 11.1964 9.50029 11.1964C9.95021 11.1964 10.3817 11.0177 10.6998 10.6996C11.018 10.3814 11.1967 9.94992 11.1967 9.5C11.1967 9.05008 11.018 8.61859 10.6998 8.30044C10.3817 7.9823 9.95021 7.80357 9.50029 7.80357Z" fill="white"/>
</svg>
